<svg width="18" height="19" viewBox="0 0 18 19" fill="none" xmlns="http://www.w3.org/2000/svg">
<g opacity="0.5">
<path d="M14.5971 4.75626C14.0816 4.19394 13.1508 4.15929 12.5303 4.7798L6.45529 10.8548C6.29819 11.0119 6.29819 11.212 6.45529 11.3691C6.6124 11.5262 6.81253 11.5262 6.96963 11.3691L11.9946 6.34414C12.2875 6.05125 12.7624 6.05125 13.0553 6.34414C13.3482 6.63703 13.3482 7.11191 13.0553 7.4048L8.03029 12.4298C7.2874 13.1727 6.13753 13.1727 5.39463 12.4298C4.65174 11.6869 4.65174 10.537 5.39463 9.79414L11.4696 3.71914C12.6453 2.54349 14.5558 2.50524 15.6917 3.73062C16.8559 4.90693 16.8902 6.80814 15.6696 7.94046L8.55529 15.0548C6.9124 16.6977 4.33753 16.6977 2.69463 15.0548C1.05174 13.4119 1.05174 10.837 2.69463 9.19414L8.76963 3.11914C9.06253 2.82625 9.5374 2.82625 9.83029 3.11914C10.1232 3.41203 10.1232 3.88691 9.83029 4.1798L3.75529 10.2548C2.69819 11.3119 2.69819 12.937 3.75529 13.9941C4.8124 15.0512 6.43753 15.0512 7.49463 13.9941L14.6196 6.86914C14.6273 6.86146 14.6352 6.85394 14.6432 6.8466C15.2055 6.33114 15.2401 5.40031 14.6196 4.7798C14.612 4.77212 14.6044 4.76427 14.5971 4.75626Z" fill="#1C1D22"/>
</g>
</svg>
