<svg width="19" height="17" viewBox="0 0 19 17" fill="none" xmlns="http://www.w3.org/2000/svg">
<g opacity="0.5">
<path d="M3.08862 5.24108C3.08862 4.87289 3.43433 4.57441 3.86077 4.57441H4.63293C5.05937 4.57441 5.40508 4.87289 5.40508 5.24108C5.40508 5.60927 5.05937 5.90774 4.63293 5.90774H3.86077C3.43433 5.90774 3.08862 5.60927 3.08862 5.24108ZM6.94938 5.24108C6.94938 4.87289 7.29509 4.57441 7.72153 4.57441H14.6709C15.0973 4.57441 15.4431 4.87289 15.4431 5.24108C15.4431 5.60927 15.0973 5.90774 14.6709 5.90774H7.72153C7.29509 5.90774 6.94938 5.60927 6.94938 5.24108ZM3.08862 8.57441C3.08862 8.20622 3.43433 7.90774 3.86077 7.90774H4.63293C5.05937 7.90774 5.40508 8.20622 5.40508 8.57441C5.40508 8.9426 5.05937 9.24108 4.63293 9.24108H3.86077C3.43433 9.24108 3.08862 8.9426 3.08862 8.57441ZM6.94938 8.57441C6.94938 8.20622 7.29509 7.90774 7.72153 7.90774H14.6709C15.0973 7.90774 15.4431 8.20622 15.4431 8.57441C15.4431 8.9426 15.0973 9.24108 14.6709 9.24108H7.72153C7.29509 9.24108 6.94938 8.9426 6.94938 8.57441ZM3.08862 11.9077C3.08862 11.5396 3.43433 11.2411 3.86077 11.2411H4.63293C5.05937 11.2411 5.40508 11.5396 5.40508 11.9077C5.40508 12.2759 5.05937 12.5744 4.63293 12.5744H3.86077C3.43433 12.5744 3.08862 12.2759 3.08862 11.9077ZM6.94938 11.9077C6.94938 11.5396 7.29509 11.2411 7.72153 11.2411H14.6709C15.0973 11.2411 15.4431 11.5396 15.4431 11.9077C15.4431 12.2759 15.0973 12.5744 14.6709 12.5744H7.72153C7.29509 12.5744 6.94938 12.2759 6.94938 11.9077Z" fill="#1C1D22"/>
</g>
</svg>
