<svg width="16" height="16" viewBox="0 0 16 16" fill="none" xmlns="http://www.w3.org/2000/svg">
<g opacity="0.5">
<path d="M2.66667 4.66654C2.66667 4.29835 2.96515 3.99988 3.33334 3.99988H4C4.36819 3.99988 4.66667 4.29835 4.66667 4.66654C4.66667 5.03473 4.36819 5.33321 4 5.33321H3.33334C2.96515 5.33321 2.66667 5.03473 2.66667 4.66654ZM6 4.66654C6 4.29835 6.29848 3.99988 6.66667 3.99988H12.6667C13.0349 3.99988 13.3333 4.29835 13.3333 4.66654C13.3333 5.03473 13.0349 5.33321 12.6667 5.33321H6.66667C6.29848 5.33321 6 5.03473 6 4.66654ZM2.66667 7.99988C2.66667 7.63169 2.96515 7.33321 3.33334 7.33321H4C4.36819 7.33321 4.66667 7.63169 4.66667 7.99988C4.66667 8.36807 4.36819 8.66654 4 8.66654H3.33334C2.96515 8.66654 2.66667 8.36807 2.66667 7.99988ZM6 7.99988C6 7.63169 6.29848 7.33321 6.66667 7.33321H12.6667C13.0349 7.33321 13.3333 7.63169 13.3333 7.99988C13.3333 8.36807 13.0349 8.66654 12.6667 8.66654H6.66667C6.29848 8.66654 6 8.36807 6 7.99988ZM2.66667 11.3332C2.66667 10.965 2.96515 10.6665 3.33334 10.6665H4C4.36819 10.6665 4.66667 10.965 4.66667 11.3332C4.66667 11.7014 4.36819 11.9999 4 11.9999H3.33334C2.96515 11.9999 2.66667 11.7014 2.66667 11.3332ZM6 11.3332C6 10.965 6.29848 10.6665 6.66667 10.6665H12.6667C13.0349 10.6665 13.3333 10.965 13.3333 11.3332C13.3333 11.7014 13.0349 11.9999 12.6667 11.9999H6.66667C6.29848 11.9999 6 11.7014 6 11.3332Z" fill="#1C1D22"/>
</g>
</svg>
