<svg width="19" height="17" viewBox="0 0 19 17" fill="none" xmlns="http://www.w3.org/2000/svg">
<g opacity="0.5">
<path d="M3.08862 5.03303C3.08862 4.66484 3.43433 4.36636 3.86077 4.36636H4.63293C5.05937 4.36636 5.40508 4.66484 5.40508 5.03303C5.40508 5.40122 5.05937 5.6997 4.63293 5.6997H3.86077C3.43433 5.6997 3.08862 5.40122 3.08862 5.03303ZM6.94938 5.03303C6.94938 4.66484 7.29509 4.36636 7.72153 4.36636H14.6709C15.0973 4.36636 15.4431 4.66484 15.4431 5.03303C15.4431 5.40122 15.0973 5.6997 14.6709 5.6997H7.72153C7.29509 5.6997 6.94938 5.40122 6.94938 5.03303ZM3.08862 8.36636C3.08862 7.99817 3.43433 7.6997 3.86077 7.6997H4.63293C5.05937 7.6997 5.40508 7.99817 5.40508 8.36636C5.40508 8.73455 5.05937 9.03303 4.63293 9.03303H3.86077C3.43433 9.03303 3.08862 8.73455 3.08862 8.36636ZM6.94938 8.36636C6.94938 7.99817 7.29509 7.6997 7.72153 7.6997H14.6709C15.0973 7.6997 15.4431 7.99817 15.4431 8.36636C15.4431 8.73455 15.0973 9.03303 14.6709 9.03303H7.72153C7.29509 9.03303 6.94938 8.73455 6.94938 8.36636ZM3.08862 11.6997C3.08862 11.3315 3.43433 11.033 3.86077 11.033H4.63293C5.05937 11.033 5.40508 11.3315 5.40508 11.6997C5.40508 12.0679 5.05937 12.3664 4.63293 12.3664H3.86077C3.43433 12.3664 3.08862 12.0679 3.08862 11.6997ZM6.94938 11.6997C6.94938 11.3315 7.29509 11.033 7.72153 11.033H14.6709C15.0973 11.033 15.4431 11.3315 15.4431 11.6997C15.4431 12.0679 15.0973 12.3664 14.6709 12.3664H7.72153C7.29509 12.3664 6.94938 12.0679 6.94938 11.6997Z" fill="#1C1D22"/>
</g>
</svg>
