<svg width="18" height="19" viewBox="0 0 18 19" fill="none" xmlns="http://www.w3.org/2000/svg">
<g opacity="0.5">
<path d="M14.5972 4.75626C14.0817 4.19394 13.1509 4.15929 12.5304 4.7798L6.45535 10.8548C6.29825 11.0119 6.29825 11.212 6.45535 11.3691C6.61246 11.5262 6.81259 11.5262 6.96969 11.3691L11.9947 6.34414C12.2876 6.05125 12.7625 6.05125 13.0554 6.34414C13.3482 6.63703 13.3482 7.11191 13.0554 7.4048L8.03035 12.4298C7.28746 13.1727 6.13759 13.1727 5.39469 12.4298C4.6518 11.6869 4.6518 10.537 5.39469 9.79414L11.4697 3.71914C12.6453 2.54349 14.5559 2.50524 15.6918 3.73062C16.856 4.90693 16.8903 6.80814 15.6697 7.94046L8.55535 15.0548C6.91246 16.6977 4.33759 16.6977 2.69469 15.0548C1.0518 13.4119 1.0518 10.837 2.69469 9.19414L8.76969 3.11914C9.06259 2.82625 9.53746 2.82625 9.83035 3.11914C10.1232 3.41203 10.1232 3.88691 9.83035 4.1798L3.75535 10.2548C2.69825 11.3119 2.69825 12.937 3.75535 13.9941C4.81246 15.0512 6.43759 15.0512 7.49469 13.9941L14.6197 6.86914C14.6274 6.86146 14.6352 6.85394 14.6432 6.8466C15.2056 6.33114 15.2402 5.40031 14.6197 4.7798C14.612 4.77212 14.6045 4.76427 14.5972 4.75626Z" fill="#1C1D22"/>
</g>
</svg>
