<svg width="19" height="17" viewBox="0 0 19 17" fill="none" xmlns="http://www.w3.org/2000/svg">
<g opacity="0.5">
<path d="M3.08861 5.03303C3.08861 4.66484 3.43431 4.36636 3.86076 4.36636H4.63291C5.05936 4.36636 5.40506 4.66484 5.40506 5.03303C5.40506 5.40122 5.05936 5.6997 4.63291 5.6997H3.86076C3.43431 5.6997 3.08861 5.40122 3.08861 5.03303ZM6.94937 5.03303C6.94937 4.66484 7.29507 4.36636 7.72152 4.36636H14.6709C15.0973 4.36636 15.443 4.66484 15.443 5.03303C15.443 5.40122 15.0973 5.6997 14.6709 5.6997H7.72152C7.29507 5.6997 6.94937 5.40122 6.94937 5.03303ZM3.08861 8.36636C3.08861 7.99817 3.43431 7.6997 3.86076 7.6997H4.63291C5.05936 7.6997 5.40506 7.99817 5.40506 8.36636C5.40506 8.73455 5.05936 9.03303 4.63291 9.03303H3.86076C3.43431 9.03303 3.08861 8.73455 3.08861 8.36636ZM6.94937 8.36636C6.94937 7.99817 7.29507 7.6997 7.72152 7.6997H14.6709C15.0973 7.6997 15.443 7.99817 15.443 8.36636C15.443 8.73455 15.0973 9.03303 14.6709 9.03303H7.72152C7.29507 9.03303 6.94937 8.73455 6.94937 8.36636ZM3.08861 11.6997C3.08861 11.3315 3.43431 11.033 3.86076 11.033H4.63291C5.05936 11.033 5.40506 11.3315 5.40506 11.6997C5.40506 12.0679 5.05936 12.3664 4.63291 12.3664H3.86076C3.43431 12.3664 3.08861 12.0679 3.08861 11.6997ZM6.94937 11.6997C6.94937 11.3315 7.29507 11.033 7.72152 11.033H14.6709C15.0973 11.033 15.443 11.3315 15.443 11.6997C15.443 12.0679 15.0973 12.3664 14.6709 12.3664H7.72152C7.29507 12.3664 6.94937 12.0679 6.94937 11.6997Z" fill="#1C1D22"/>
</g>
</svg>
