<svg width="16" height="16" viewBox="0 0 16 16" fill="none" xmlns="http://www.w3.org/2000/svg">
<g opacity="0.5">
<path d="M2.66603 4.66669C2.66603 4.2985 2.96451 4.00002 3.3327 4.00002H3.99936C4.36755 4.00002 4.66603 4.2985 4.66603 4.66669C4.66603 5.03488 4.36755 5.33336 3.99936 5.33336H3.3327C2.96451 5.33336 2.66603 5.03488 2.66603 4.66669ZM5.99936 4.66669C5.99936 4.2985 6.29784 4.00002 6.66603 4.00002H12.666C13.0342 4.00002 13.3327 4.2985 13.3327 4.66669C13.3327 5.03488 13.0342 5.33336 12.666 5.33336H6.66603C6.29784 5.33336 5.99936 5.03488 5.99936 4.66669ZM2.66603 8.00002C2.66603 7.63183 2.96451 7.33336 3.3327 7.33336H3.99936C4.36755 7.33336 4.66603 7.63183 4.66603 8.00002C4.66603 8.36821 4.36755 8.66669 3.99936 8.66669H3.3327C2.96451 8.66669 2.66603 8.36821 2.66603 8.00002ZM5.99936 8.00002C5.99936 7.63183 6.29784 7.33336 6.66603 7.33336H12.666C13.0342 7.33336 13.3327 7.63183 13.3327 8.00002C13.3327 8.36821 13.0342 8.66669 12.666 8.66669H6.66603C6.29784 8.66669 5.99936 8.36821 5.99936 8.00002ZM2.66603 11.3334C2.66603 10.9652 2.96451 10.6667 3.3327 10.6667H3.99936C4.36755 10.6667 4.66603 10.9652 4.66603 11.3334C4.66603 11.7015 4.36755 12 3.99936 12H3.3327C2.96451 12 2.66603 11.7015 2.66603 11.3334ZM5.99936 11.3334C5.99936 10.9652 6.29784 10.6667 6.66603 10.6667H12.666C13.0342 10.6667 13.3327 10.9652 13.3327 11.3334C13.3327 11.7015 13.0342 12 12.666 12H6.66603C6.29784 12 5.99936 11.7015 5.99936 11.3334Z" fill="#1C1D22"/>
</g>
</svg>
