<svg width="18" height="19" viewBox="0 0 18 19" fill="none" xmlns="http://www.w3.org/2000/svg">
<g opacity="0.5">
<path d="M14.5972 4.54822C14.0817 3.9859 13.1509 3.95125 12.5304 4.57176L6.45535 10.6468C6.29825 10.8039 6.29825 11.004 6.45535 11.1611C6.61246 11.3182 6.81259 11.3182 6.96969 11.1611L11.9947 6.1361C12.2876 5.84321 12.7625 5.84321 13.0554 6.1361C13.3482 6.42899 13.3482 6.90387 13.0554 7.19676L8.03035 12.2218C7.28746 12.9647 6.13759 12.9647 5.39469 12.2218C4.6518 11.4789 4.6518 10.329 5.39469 9.5861L11.4697 3.5111C12.6453 2.33545 14.5559 2.2972 15.6918 3.52258C16.856 4.69889 16.8903 6.6001 15.6697 7.73242L8.55535 14.8468C6.91246 16.4897 4.33759 16.4897 2.69469 14.8468C1.0518 13.2039 1.0518 10.629 2.69469 8.9861L8.76969 2.9111C9.06259 2.61821 9.53746 2.61821 9.83035 2.9111C10.1232 3.20399 10.1232 3.67887 9.83035 3.97176L3.75535 10.0468C2.69825 11.1039 2.69825 12.729 3.75535 13.7861C4.81246 14.8432 6.43759 14.8432 7.49469 13.7861L14.6197 6.6611C14.6274 6.65342 14.6352 6.6459 14.6432 6.63856C15.2056 6.1231 15.2402 5.19227 14.6197 4.57176C14.612 4.56408 14.6045 4.55623 14.5972 4.54822Z" fill="#1C1D22"/>
</g>
</svg>
