<svg width="18" height="19" viewBox="0 0 18 19" fill="none" xmlns="http://www.w3.org/2000/svg">
<g opacity="0.5">
<path d="M1.5 4.65839C1.5 3.82996 2.17157 3.15839 3 3.15839H15C15.8284 3.15839 16.5 3.82996 16.5 4.65839V12.9084C16.5 13.7368 15.8284 14.4084 15 14.4084H11.5607L9.53033 16.4387C9.23744 16.7316 8.76256 16.7316 8.46967 16.4387L6.43934 14.4084H3C2.17157 14.4084 1.5 13.7368 1.5 12.9084V4.65839ZM15 4.65839H3V12.9084H6.75C6.94891 12.9084 7.13968 12.9874 7.28033 13.1281L9 14.8477L10.7197 13.1281C10.8603 12.9874 11.0511 12.9084 11.25 12.9084H15V4.65839ZM4.5 7.28339C4.5 6.86917 4.83579 6.53339 5.25 6.53339H12.75C13.1642 6.53339 13.5 6.86917 13.5 7.28339C13.5 7.6976 13.1642 8.03339 12.75 8.03339H5.25C4.83579 8.03339 4.5 7.6976 4.5 7.28339ZM4.5 10.2834C4.5 9.86917 4.83579 9.53339 5.25 9.53339H9.75C10.1642 9.53339 10.5 9.86917 10.5 10.2834C10.5 10.6976 10.1642 11.0334 9.75 11.0334H5.25C4.83579 11.0334 4.5 10.6976 4.5 10.2834Z" fill="#1C1D22"/>
</g>
</svg>
