<svg width="18" height="19" viewBox="0 0 18 19" fill="none" xmlns="http://www.w3.org/2000/svg">
<g opacity="0.5">
<path d="M14.5972 4.34018C14.0817 3.77786 13.1509 3.74321 12.5304 4.36372L6.45535 10.4387C6.29825 10.5958 6.29825 10.796 6.45535 10.9531C6.61246 11.1102 6.81259 11.1102 6.96969 10.9531L11.9947 5.92806C12.2876 5.63517 12.7625 5.63517 13.0554 5.92806C13.3482 6.22095 13.3482 6.69583 13.0554 6.98872L8.03035 12.0137C7.28746 12.7566 6.13759 12.7566 5.39469 12.0137C4.6518 11.2708 4.6518 10.121 5.39469 9.37806L11.4697 3.30306C12.6453 2.12741 14.5559 2.08916 15.6918 3.31454C16.856 4.49085 16.8903 6.39206 15.6697 7.52438L8.55535 14.6387C6.91246 16.2816 4.33759 16.2816 2.69469 14.6387C1.0518 12.9958 1.0518 10.421 2.69469 8.77806L8.76969 2.70306C9.06259 2.41017 9.53746 2.41017 9.83035 2.70306C10.1232 2.99595 10.1232 3.47083 9.83035 3.76372L3.75535 9.83872C2.69825 10.8958 2.69825 12.521 3.75535 13.5781C4.81246 14.6352 6.43759 14.6352 7.49469 13.5781L14.6197 6.45306C14.6274 6.44538 14.6352 6.43787 14.6432 6.43052C15.2056 5.91506 15.2402 4.98423 14.6197 4.36372C14.612 4.35604 14.6045 4.34819 14.5972 4.34018Z" fill="#1C1D22"/>
</g>
</svg>
