<svg width="19" height="17" viewBox="0 0 19 17" fill="none" xmlns="http://www.w3.org/2000/svg">
<g opacity="0.5">
<path d="M3.08862 4.82499C3.08862 4.4568 3.43433 4.15833 3.86077 4.15833H4.63293C5.05937 4.15833 5.40508 4.4568 5.40508 4.82499C5.40508 5.19318 5.05937 5.49166 4.63293 5.49166H3.86077C3.43433 5.49166 3.08862 5.19318 3.08862 4.82499ZM6.94938 4.82499C6.94938 4.4568 7.29509 4.15833 7.72153 4.15833H14.6709C15.0973 4.15833 15.4431 4.4568 15.4431 4.82499C15.4431 5.19318 15.0973 5.49166 14.6709 5.49166H7.72153C7.29509 5.49166 6.94938 5.19318 6.94938 4.82499ZM3.08862 8.15833C3.08862 7.79014 3.43433 7.49166 3.86077 7.49166H4.63293C5.05937 7.49166 5.40508 7.79014 5.40508 8.15833C5.40508 8.52652 5.05937 8.82499 4.63293 8.82499H3.86077C3.43433 8.82499 3.08862 8.52652 3.08862 8.15833ZM6.94938 8.15833C6.94938 7.79014 7.29509 7.49166 7.72153 7.49166H14.6709C15.0973 7.49166 15.4431 7.79014 15.4431 8.15833C15.4431 8.52652 15.0973 8.82499 14.6709 8.82499H7.72153C7.29509 8.82499 6.94938 8.52652 6.94938 8.15833ZM3.08862 11.4917C3.08862 11.1235 3.43433 10.825 3.86077 10.825H4.63293C5.05937 10.825 5.40508 11.1235 5.40508 11.4917C5.40508 11.8598 5.05937 12.1583 4.63293 12.1583H3.86077C3.43433 12.1583 3.08862 11.8598 3.08862 11.4917ZM6.94938 11.4917C6.94938 11.1235 7.29509 10.825 7.72153 10.825H14.6709C15.0973 10.825 15.4431 11.1235 15.4431 11.4917C15.4431 11.8598 15.0973 12.1583 14.6709 12.1583H7.72153C7.29509 12.1583 6.94938 11.8598 6.94938 11.4917Z" fill="#1C1D22"/>
</g>
</svg>
