<svg width="18" height="19" viewBox="0 0 18 19" fill="none" xmlns="http://www.w3.org/2000/svg">
<g opacity="0.5">
<path d="M14.5971 4.54822C14.0816 3.9859 13.1508 3.95125 12.5303 4.57176L6.45529 10.6468C6.29819 10.8039 6.29819 11.004 6.45529 11.1611C6.6124 11.3182 6.81253 11.3182 6.96963 11.1611L11.9946 6.1361C12.2875 5.84321 12.7624 5.84321 13.0553 6.1361C13.3482 6.42899 13.3482 6.90387 13.0553 7.19676L8.03029 12.2218C7.2874 12.9647 6.13753 12.9647 5.39463 12.2218C4.65174 11.4789 4.65174 10.329 5.39463 9.5861L11.4696 3.5111C12.6453 2.33545 14.5558 2.2972 15.6917 3.52258C16.8559 4.69889 16.8902 6.6001 15.6696 7.73242L8.55529 14.8468C6.9124 16.4897 4.33753 16.4897 2.69463 14.8468C1.05174 13.2039 1.05174 10.629 2.69463 8.9861L8.76963 2.9111C9.06253 2.61821 9.5374 2.61821 9.83029 2.9111C10.1232 3.20399 10.1232 3.67887 9.83029 3.97176L3.75529 10.0468C2.69819 11.1039 2.69819 12.729 3.75529 13.7861C4.8124 14.8432 6.43753 14.8432 7.49463 13.7861L14.6196 6.6611C14.6273 6.65342 14.6352 6.6459 14.6432 6.63856C15.2055 6.1231 15.2401 5.19227 14.6196 4.57176C14.612 4.56408 14.6044 4.55623 14.5971 4.54822Z" fill="#1C1D22"/>
</g>
</svg>
