<svg width="19" height="17" viewBox="0 0 19 17" fill="none" xmlns="http://www.w3.org/2000/svg">
<g opacity="0.5">
<path d="M3.08861 5.24108C3.08861 4.87289 3.43431 4.57441 3.86076 4.57441H4.63291C5.05936 4.57441 5.40506 4.87289 5.40506 5.24108C5.40506 5.60927 5.05936 5.90774 4.63291 5.90774H3.86076C3.43431 5.90774 3.08861 5.60927 3.08861 5.24108ZM6.94937 5.24108C6.94937 4.87289 7.29507 4.57441 7.72152 4.57441H14.6709C15.0973 4.57441 15.443 4.87289 15.443 5.24108C15.443 5.60927 15.0973 5.90774 14.6709 5.90774H7.72152C7.29507 5.90774 6.94937 5.60927 6.94937 5.24108ZM3.08861 8.57441C3.08861 8.20622 3.43431 7.90774 3.86076 7.90774H4.63291C5.05936 7.90774 5.40506 8.20622 5.40506 8.57441C5.40506 8.9426 5.05936 9.24108 4.63291 9.24108H3.86076C3.43431 9.24108 3.08861 8.9426 3.08861 8.57441ZM6.94937 8.57441C6.94937 8.20622 7.29507 7.90774 7.72152 7.90774H14.6709C15.0973 7.90774 15.443 8.20622 15.443 8.57441C15.443 8.9426 15.0973 9.24108 14.6709 9.24108H7.72152C7.29507 9.24108 6.94937 8.9426 6.94937 8.57441ZM3.08861 11.9077C3.08861 11.5396 3.43431 11.2411 3.86076 11.2411H4.63291C5.05936 11.2411 5.40506 11.5396 5.40506 11.9077C5.40506 12.2759 5.05936 12.5744 4.63291 12.5744H3.86076C3.43431 12.5744 3.08861 12.2759 3.08861 11.9077ZM6.94937 11.9077C6.94937 11.5396 7.29507 11.2411 7.72152 11.2411H14.6709C15.0973 11.2411 15.443 11.5396 15.443 11.9077C15.443 12.2759 15.0973 12.5744 14.6709 12.5744H7.72152C7.29507 12.5744 6.94937 12.2759 6.94937 11.9077Z" fill="#1C1D22"/>
</g>
</svg>
