<svg width="16" height="16" viewBox="0 0 16 16" fill="none" xmlns="http://www.w3.org/2000/svg">
<g opacity="0.5">
<path d="M2.66667 4.66661C2.66667 4.29842 2.96515 3.99994 3.33334 3.99994H4C4.36819 3.99994 4.66667 4.29842 4.66667 4.66661C4.66667 5.0348 4.36819 5.33327 4 5.33327H3.33334C2.96515 5.33327 2.66667 5.0348 2.66667 4.66661ZM6 4.66661C6 4.29842 6.29848 3.99994 6.66667 3.99994H12.6667C13.0349 3.99994 13.3333 4.29842 13.3333 4.66661C13.3333 5.0348 13.0349 5.33327 12.6667 5.33327H6.66667C6.29848 5.33327 6 5.0348 6 4.66661ZM2.66667 7.99994C2.66667 7.63175 2.96515 7.33327 3.33334 7.33327H4C4.36819 7.33327 4.66667 7.63175 4.66667 7.99994C4.66667 8.36813 4.36819 8.66661 4 8.66661H3.33334C2.96515 8.66661 2.66667 8.36813 2.66667 7.99994ZM6 7.99994C6 7.63175 6.29848 7.33327 6.66667 7.33327H12.6667C13.0349 7.33327 13.3333 7.63175 13.3333 7.99994C13.3333 8.36813 13.0349 8.66661 12.6667 8.66661H6.66667C6.29848 8.66661 6 8.36813 6 7.99994ZM2.66667 11.3333C2.66667 10.9651 2.96515 10.6666 3.33334 10.6666H4C4.36819 10.6666 4.66667 10.9651 4.66667 11.3333C4.66667 11.7015 4.36819 11.9999 4 11.9999H3.33334C2.96515 11.9999 2.66667 11.7015 2.66667 11.3333ZM6 11.3333C6 10.9651 6.29848 10.6666 6.66667 10.6666H12.6667C13.0349 10.6666 13.3333 10.9651 13.3333 11.3333C13.3333 11.7015 13.0349 11.9999 12.6667 11.9999H6.66667C6.29848 11.9999 6 11.7015 6 11.3333Z" fill="#1C1D22"/>
</g>
</svg>
