<svg width="18" height="19" viewBox="0 0 18 19" fill="none" xmlns="http://www.w3.org/2000/svg">
<g opacity="0.5">
<path d="M1.5 4.86642C1.5 4.038 2.17157 3.36642 3 3.36642H15C15.8284 3.36642 16.5 4.038 16.5 4.86642V13.1164C16.5 13.9449 15.8284 14.6164 15 14.6164H11.5607L9.53033 16.6468C9.23744 16.9396 8.76256 16.9396 8.46967 16.6468L6.43934 14.6164H3C2.17157 14.6164 1.5 13.9449 1.5 13.1164V4.86642ZM15 4.86642H3V13.1164H6.75C6.94891 13.1164 7.13968 13.1954 7.28033 13.3361L9 15.0558L10.7197 13.3361C10.8603 13.1954 11.0511 13.1164 11.25 13.1164H15V4.86642ZM4.5 7.49142C4.5 7.07721 4.83579 6.74142 5.25 6.74142H12.75C13.1642 6.74142 13.5 7.07721 13.5 7.49142C13.5 7.90564 13.1642 8.24142 12.75 8.24142H5.25C4.83579 8.24142 4.5 7.90564 4.5 7.49142ZM4.5 10.4914C4.5 10.0772 4.83579 9.74142 5.25 9.74142H9.75C10.1642 9.74142 10.5 10.0772 10.5 10.4914C10.5 10.9056 10.1642 11.2414 9.75 11.2414H5.25C4.83579 11.2414 4.5 10.9056 4.5 10.4914Z" fill="#1C1D22"/>
</g>
</svg>
