<svg width="48" height="407" viewBox="0 0 48 407" fill="none" xmlns="http://www.w3.org/2000/svg">
<g opacity="0.5">
<path d="M21.25 389.583C20.7438 389.583 20.3334 389.994 20.3334 390.5C20.3334 391.006 20.7438 391.417 21.25 391.417C21.7563 391.417 22.1667 391.006 22.1667 390.5C22.1667 389.994 21.7563 389.583 21.25 389.583ZM18.6565 389.583C19.034 388.515 20.0527 387.75 21.25 387.75C22.4474 387.75 23.466 388.515 23.8435 389.583H30.4167C30.9229 389.583 31.3334 389.994 31.3334 390.5C31.3334 391.006 30.9229 391.417 30.4167 391.417H23.8435C23.466 392.485 22.4474 393.25 21.25 393.25C20.0527 393.25 19.034 392.485 18.6565 391.417H17.5834C17.0771 391.417 16.6667 391.006 16.6667 390.5C16.6667 389.994 17.0771 389.583 17.5834 389.583H18.6565ZM26.75 395.083C26.2438 395.083 25.8334 395.494 25.8334 396C25.8334 396.506 26.2438 396.917 26.75 396.917C27.2563 396.917 27.6667 396.506 27.6667 396C27.6667 395.494 27.2563 395.083 26.75 395.083ZM24.1565 395.083C24.534 394.015 25.5527 393.25 26.75 393.25C27.9474 393.25 28.966 394.015 29.3435 395.083H30.4167C30.9229 395.083 31.3334 395.494 31.3334 396C31.3334 396.506 30.9229 396.917 30.4167 396.917H29.3435C28.966 397.985 27.9474 398.75 26.75 398.75C25.5527 398.75 24.534 397.985 24.1565 396.917H17.5834C17.0771 396.917 16.6667 396.506 16.6667 396C16.6667 395.494 17.0771 395.083 17.5834 395.083H24.1565ZM21.25 400.583C20.7438 400.583 20.3334 400.994 20.3334 401.5C20.3334 402.006 20.7438 402.417 21.25 402.417C21.7563 402.417 22.1667 402.006 22.1667 401.5C22.1667 400.994 21.7563 400.583 21.25 400.583ZM18.6565 400.583C19.034 399.515 20.0527 398.75 21.25 398.75C22.4474 398.75 23.466 399.515 23.8435 400.583H30.4167C30.9229 400.583 31.3334 400.994 31.3334 401.5C31.3334 402.006 30.9229 402.417 30.4167 402.417H23.8435C23.466 403.485 22.4474 404.25 21.25 404.25C20.0527 404.25 19.034 403.485 18.6565 402.417H17.5834C17.0771 402.417 16.6667 402.006 16.6667 401.5C16.6667 400.994 17.0771 400.583 17.5834 400.583H18.6565Z" fill="white"/>
</g>
<g opacity="0.5">
<path d="M20.9601 325.797C21.1483 325.734 21.3517 325.734 21.5399 325.797L26.75 327.534L30.7536 326.199C31.9407 325.804 33.1666 326.687 33.1666 327.938V338.839C33.1666 339.628 32.6617 340.329 31.9131 340.579L27.0399 342.203C26.8517 342.266 26.6483 342.266 26.4601 342.203L21.25 340.466L17.2464 341.801C16.0593 342.196 14.8333 341.313 14.8333 340.062V329.161C14.8333 328.372 15.3383 327.671 16.0869 327.421L20.9601 325.797ZM22.1666 338.839L25.8333 340.062V329.161L22.1666 327.938V338.839ZM20.3333 327.938L16.6666 329.161V340.062L20.3333 338.839V327.938ZM27.6666 329.161V340.062L31.3333 338.839V327.938L27.6666 329.161Z" fill="white"/>
</g>
<g opacity="0.5">
<path d="M23.0833 264.667C21.0582 264.667 19.4166 266.308 19.4166 268.333C19.4166 268.363 19.4171 268.394 19.4178 268.427C19.4278 268.853 19.1425 269.23 18.7296 269.336C17.5428 269.641 16.6666 270.72 16.6666 272C16.6666 273.519 17.8979 274.75 19.4166 274.75H20.3333C20.8396 274.75 21.25 275.16 21.25 275.667C21.25 276.173 20.8396 276.583 20.3333 276.583H19.4166C16.8854 276.583 14.8333 274.531 14.8333 272C14.8333 270.109 15.9775 268.488 17.6101 267.787C17.8845 265.006 20.2302 262.833 23.0833 262.833C25.1216 262.833 26.8993 263.942 27.8491 265.586C30.8022 265.683 33.1666 268.107 33.1666 271.083C33.1666 274.121 30.7043 276.583 27.6666 276.583C27.1604 276.583 26.75 276.173 26.75 275.667C26.75 275.16 27.1604 274.75 27.6666 274.75C29.6917 274.75 31.3333 273.108 31.3333 271.083C31.3333 269.058 29.6917 267.417 27.6666 267.417C27.5652 267.417 27.4649 267.421 27.3658 267.429C26.9745 267.46 26.6065 267.239 26.4506 266.879C25.8868 265.576 24.5902 264.667 23.0833 264.667ZM23.3518 269.518C23.7098 269.161 24.2902 269.161 24.6482 269.518L26.4815 271.352C26.8395 271.71 26.8395 272.29 26.4815 272.648C26.1235 273.006 25.5431 273.006 25.1851 272.648L24.9166 272.38V279.333C24.9166 279.84 24.5062 280.25 24 280.25C23.4937 280.25 23.0833 279.84 23.0833 279.333V272.38L22.8148 272.648C22.4568 273.006 21.8764 273.006 21.5185 272.648C21.1605 272.29 21.1605 271.71 21.5185 271.352L23.3518 269.518Z" fill="white"/>
</g>
<g opacity="0.5">
<path d="M15.75 203.583C15.75 202.571 16.5708 201.75 17.5833 201.75H30.4167C31.4292 201.75 32.25 202.571 32.25 203.583V216.417C32.25 217.429 31.4292 218.25 30.4167 218.25H17.5833C16.5708 218.25 15.75 217.429 15.75 216.417V203.583ZM30.4167 203.583H17.5833V216.417H30.4167V203.583ZM24 205.417C24.5063 205.417 24.9167 205.827 24.9167 206.333V213.667C24.9167 214.173 24.5063 214.583 24 214.583C23.4937 214.583 23.0833 214.173 23.0833 213.667V206.333C23.0833 205.827 23.4937 205.417 24 205.417ZM27.6667 207.25C28.1729 207.25 28.5833 207.66 28.5833 208.167V213.667C28.5833 214.173 28.1729 214.583 27.6667 214.583C27.1604 214.583 26.75 214.173 26.75 213.667V208.167C26.75 207.66 27.1604 207.25 27.6667 207.25ZM20.3333 209.083C20.8396 209.083 21.25 209.494 21.25 210V213.667C21.25 214.173 20.8396 214.583 20.3333 214.583C19.8271 214.583 19.4167 214.173 19.4167 213.667V210C19.4167 209.494 19.8271 209.083 20.3333 209.083Z" fill="white"/>
</g>
<g opacity="0.5">
<path d="M21.25 138.833C21.7563 138.833 22.1667 139.244 22.1667 139.75V140.667H25.8333V139.75C25.8333 139.244 26.2437 138.833 26.75 138.833C27.2563 138.833 27.6667 139.244 27.6667 139.75V140.667H30.4167C31.4292 140.667 32.25 141.487 32.25 142.5V154.417C32.25 155.429 31.4292 156.25 30.4167 156.25H17.5833C16.5708 156.25 15.75 155.429 15.75 154.417V142.5C15.75 141.487 16.5708 140.667 17.5833 140.667H20.3333V139.75C20.3333 139.244 20.7437 138.833 21.25 138.833ZM20.3333 142.5H17.5833V145.25H30.4167V142.5H27.6667V143.417C27.6667 143.923 27.2563 144.333 26.75 144.333C26.2437 144.333 25.8333 143.923 25.8333 143.417V142.5H22.1667V143.417C22.1667 143.923 21.7563 144.333 21.25 144.333C20.7437 144.333 20.3333 143.923 20.3333 143.417V142.5ZM30.4167 147.083H17.5833V154.417H30.4167V147.083Z" fill="white"/>
</g>
<g opacity="0.5">
<path d="M24 78.6667C21.975 78.6667 20.3333 80.3083 20.3333 82.3333C20.3333 84.3584 21.975 86 24 86C26.025 86 27.6667 84.3584 27.6667 82.3333C27.6667 80.3083 26.025 78.6667 24 78.6667ZM18.5 82.3333C18.5 79.2958 20.9624 76.8333 24 76.8333C27.0376 76.8333 29.5 79.2958 29.5 82.3333C29.5 85.3709 27.0376 87.8333 24 87.8333C20.9624 87.8333 18.5 85.3709 18.5 82.3333ZM20.3333 91.5C18.8146 91.5 17.5833 92.7312 17.5833 94.25C17.5833 94.7563 17.1729 95.1667 16.6667 95.1667C16.1604 95.1667 15.75 94.7563 15.75 94.25C15.75 91.7187 17.802 89.6667 20.3333 89.6667H27.6667C30.198 89.6667 32.25 91.7187 32.25 94.25C32.25 94.7563 31.8396 95.1667 31.3333 95.1667C30.8271 95.1667 30.4167 94.7563 30.4167 94.25C30.4167 92.7312 29.1854 91.5 27.6667 91.5H20.3333Z" fill="white"/>
</g>
<circle cx="24" cy="24" r="24" fill="white" fill-opacity="0.1"/>
<path d="M15.75 17.5833C15.75 16.5708 16.5708 15.75 17.5833 15.75H21.25C22.2625 15.75 23.0833 16.5708 23.0833 17.5833V21.25C23.0833 22.2625 22.2625 23.0833 21.25 23.0833H17.5833C16.5708 23.0833 15.75 22.2625 15.75 21.25V17.5833ZM21.25 17.5833H17.5833V21.25H21.25V17.5833ZM24.9167 17.5833C24.9167 16.5708 25.7375 15.75 26.75 15.75H30.4167C31.4292 15.75 32.25 16.5708 32.25 17.5833V21.25C32.25 22.2625 31.4292 23.0833 30.4167 23.0833H26.75C25.7375 23.0833 24.9167 22.2625 24.9167 21.25V17.5833ZM30.4167 17.5833H26.75V21.25H30.4167V17.5833ZM15.75 26.75C15.75 25.7375 16.5708 24.9167 17.5833 24.9167H21.25C22.2625 24.9167 23.0833 25.7375 23.0833 26.75V30.4167C23.0833 31.4292 22.2625 32.25 21.25 32.25H17.5833C16.5708 32.25 15.75 31.4292 15.75 30.4167V26.75ZM21.25 26.75H17.5833V30.4167H21.25V26.75ZM24.9167 26.75C24.9167 25.7375 25.7375 24.9167 26.75 24.9167H30.4167C31.4292 24.9167 32.25 25.7375 32.25 26.75V30.4167C32.25 31.4292 31.4292 32.25 30.4167 32.25H26.75C25.7375 32.25 24.9167 31.4292 24.9167 30.4167V26.75ZM30.4167 26.75H26.75V30.4167H30.4167V26.75Z" fill="white"/>
</svg>
