<svg width="22" height="22" viewBox="0 0 22 22" fill="none" xmlns="http://www.w3.org/2000/svg">
<path d="M9.16665 3.66668C6.12908 3.66668 3.66665 6.12911 3.66665 9.16668C3.66665 12.2042 6.12908 14.6667 9.16665 14.6667C12.2042 14.6667 14.6666 12.2042 14.6666 9.16668C14.6666 6.12911 12.2042 3.66668 9.16665 3.66668ZM1.83331 9.16668C1.83331 5.11659 5.11656 1.83334 9.16665 1.83334C13.2167 1.83334 16.5 5.11659 16.5 9.16668C16.5 10.8613 15.9252 12.4217 14.9598 13.6635L19.8982 18.6018C20.2561 18.9598 20.2561 19.5402 19.8982 19.8982C19.5402 20.2562 18.9598 20.2562 18.6018 19.8982L13.6635 14.9599C12.4217 15.9252 10.8613 16.5 9.16665 16.5C5.11656 16.5 1.83331 13.2168 1.83331 9.16668Z" fill="#1C1D22"/>
</svg>
